<svg width="43" height="43" viewBox="0 0 43 43" fill="none" xmlns="http://www.w3.org/2000/svg">
<g clip-path="url(#clip0_1_20)">
<path d="M24.1874 0C19.1999 0.00604528 14.4183 1.99001 10.8916 5.51673C7.3649 9.04345 5.38094 13.825 5.37489 18.8125C5.38816 22.864 6.72162 26.8008 9.17322 30.0264L0.78724 38.4123C0.536568 38.6616 0.337546 38.9579 0.201578 39.2842C0.0656098 39.6106 -0.0046325 39.9605 -0.00512435 40.314C-0.0056162 40.6676 0.063652 41.0177 0.198712 41.3444C0.333771 41.6711 0.531967 41.968 0.781945 42.2179C1.03192 42.4679 1.32877 42.6661 1.65547 42.8012C1.98218 42.9362 2.33232 43.0055 2.68584 43.005C3.03936 43.0045 3.38931 42.9343 3.71564 42.7983C4.04197 42.6623 4.33826 42.4633 4.58754 42.2127L12.9735 33.8267C16.1991 36.2783 20.1359 37.6117 24.1874 37.625C29.1768 37.625 33.9618 35.643 37.4898 32.1149C41.0179 28.5869 42.9999 23.8019 42.9999 18.8125C42.9999 13.8231 41.0179 9.03808 37.4898 5.51005C33.9618 1.98203 29.1768 0 24.1874 0ZM24.1874 32.25C21.5297 32.25 18.9317 31.4619 16.7219 29.9854C14.5121 28.5088 12.7898 26.4102 11.7728 23.9548C10.7557 21.4994 10.4896 18.7976 11.0081 16.191C11.5266 13.5844 12.8064 11.19 14.6856 9.31075C16.5649 7.43148 18.9592 6.15169 21.5659 5.6332C24.1725 5.11471 26.8743 5.38082 29.3297 6.39787C31.7851 7.41492 33.8837 9.13724 35.3603 11.347C36.8368 13.5568 37.6249 16.1548 37.6249 18.8125C37.6207 22.3751 36.2036 25.7905 33.6845 28.3096C31.1654 30.8287 27.75 32.2458 24.1874 32.25Z" fill="#3C6CE8"/>
</g>
<defs>
<clipPath id="clip0_1_20">
<rect width="43" height="43" fill="white"/>
</clipPath>
</defs>
</svg>
